<svg width="256" height="243" viewBox="0 0 256 243" fill="none" xmlns="http://www.w3.org/2000/svg">
<path fill-rule="evenodd" clip-rule="evenodd" d="M0 57.6019C0 50.3195 5.19601 44.3044 12.0128 42.9373C12.3377 42.8305 13.7252 42.5495 14.6877 42.3544C15.1185 42.2671 15.4642 42.1972 15.5912 42.1677L196.214 0.360028C205.403 -1.76695 214.068 5.79975 214.068 15.9509V53.4985L237.972 54.8042C248.084 55.3565 256 63.7063 256 73.8202V223.954C256 234.881 246.814 243.567 235.889 242.971L14.1576 230.86C6.21656 230.425 0 223.869 0 215.926V57.6019ZM202.998 52.8938L56.6297 44.899L198.533 12.0532C200.832 11.5215 202.998 13.4131 202.998 15.9509V52.8938ZM195.665 128.886L60.3344 121.5C60.3359 156.032 89.4949 177.994 126.389 180.09C160.639 182.035 195.667 162.337 195.665 128.886Z" fill="#563BFF"/>
</svg>
